<svg width="26" height="26" viewBox="0 0 26 26" fill="none" xmlns="http://www.w3.org/2000/svg">
<path fill-rule="evenodd" clip-rule="evenodd" d="M6.5 13.8745C6.5 13.6259 6.59876 13.3874 6.77456 13.2116C6.95035 13.0358 7.18878 12.9371 7.4374 12.9371H18.2981L14.2729 8.91378C14.0969 8.73776 13.998 8.49903 13.998 8.2501C13.998 8.00118 14.0969 7.76244 14.2729 7.58643C14.4489 7.41041 14.6876 7.31152 14.9366 7.31152C15.1855 7.31152 15.4242 7.41041 15.6002 7.58643L21.2246 13.2108C21.3119 13.2979 21.3812 13.4013 21.4284 13.5152C21.4757 13.6291 21.5 13.7512 21.5 13.8745C21.5 13.9978 21.4757 14.1199 21.4284 14.2337C21.3812 14.3476 21.3119 14.4511 21.2246 14.5382L15.6002 20.1625C15.4242 20.3385 15.1855 20.4374 14.9366 20.4374C14.6876 20.4374 14.4489 20.3385 14.2729 20.1625C14.0969 19.9865 13.998 19.7478 13.998 19.4988C13.998 19.2499 14.0969 19.0112 14.2729 18.8352L18.2981 14.8119H7.4374C7.18878 14.8119 6.95035 14.7131 6.77456 14.5373C6.59876 14.3615 6.5 14.1231 6.5 13.8745Z" fill="black"/>
</svg>
