<svg width="26" height="26" viewBox="0 0 26 26" fill="none" xmlns="http://www.w3.org/2000/svg">
<path fill-rule="evenodd" clip-rule="evenodd" d="M21.4985 13.8745C21.4985 14.1231 21.3998 14.3615 21.224 14.5373C21.0482 14.7131 20.8098 14.8119 20.5611 14.8119H9.70048L13.7257 18.8352C13.8128 18.9223 13.8819 19.0258 13.9291 19.1397C13.9763 19.2535 14.0006 19.3756 14.0006 19.4988C14.0006 19.6221 13.9763 19.7442 13.9291 19.858C13.8819 19.9719 13.8128 20.0754 13.7257 20.1625C13.6385 20.2497 13.535 20.3188 13.4212 20.366C13.3073 20.4131 13.1852 20.4374 13.062 20.4374C12.9387 20.4374 12.8167 20.4131 12.7028 20.366C12.5889 20.3188 12.4855 20.2497 12.3983 20.1625L6.77393 14.5382C6.68663 14.4511 6.61737 14.3476 6.57012 14.2337C6.52286 14.1199 6.49854 13.9978 6.49854 13.8745C6.49854 13.7512 6.52286 13.6291 6.57012 13.5152C6.61737 13.4013 6.68663 13.2979 6.77393 13.2108L12.3983 7.58643C12.5743 7.41041 12.8131 7.31152 13.062 7.31152C13.3109 7.31152 13.5496 7.41041 13.7257 7.58643C13.9017 7.76244 14.0006 8.00118 14.0006 8.2501C14.0006 8.49903 13.9017 8.73776 13.7257 8.91378L9.70048 12.9371H20.5611C20.8098 12.9371 21.0482 13.0358 21.224 13.2116C21.3998 13.3874 21.4985 13.6259 21.4985 13.8745Z" fill="black"/>
</svg>
