<svg width="16" height="16" viewBox="0 0 16 16" fill="none" xmlns="http://www.w3.org/2000/svg">
<path fill-rule="evenodd" clip-rule="evenodd" d="M12.5674 4.30078C12.6245 4.24384 12.6697 4.17622 12.7006 4.1018C12.7315 4.02737 12.7474 3.9476 12.7474 3.86702C12.7475 3.78644 12.7316 3.70665 12.7009 3.63218C12.6701 3.55772 12.6249 3.49005 12.568 3.43304C12.511 3.37603 12.4434 3.33079 12.369 3.29991C12.2946 3.26903 12.2148 3.25311 12.1342 3.25306C12.0536 3.25301 11.9738 3.26883 11.8994 3.29962C11.8249 3.33041 11.7573 3.37557 11.7002 3.43251L7.99998 7.13278L4.30078 3.43251C4.18564 3.31737 4.02947 3.25269 3.86664 3.25269C3.70381 3.25269 3.54765 3.31737 3.43251 3.43251C3.31737 3.54765 3.25269 3.70381 3.25269 3.86664C3.25269 4.02947 3.31737 4.18564 3.43251 4.30078L7.13278 7.99998L3.43251 11.6992C3.3755 11.7562 3.33027 11.8239 3.29942 11.8984C3.26857 11.9728 3.25269 12.0527 3.25269 12.1333C3.25269 12.2139 3.26857 12.2938 3.29942 12.3683C3.33027 12.4427 3.3755 12.5104 3.43251 12.5674C3.54765 12.6826 3.70381 12.7473 3.86664 12.7473C3.94727 12.7473 4.02711 12.7314 4.10159 12.7005C4.17608 12.6697 4.24376 12.6245 4.30078 12.5674L7.99998 8.86718L11.7002 12.5674C11.8154 12.6824 11.9715 12.747 12.1342 12.7469C12.297 12.7468 12.453 12.682 12.568 12.5669C12.683 12.4518 12.7475 12.2957 12.7474 12.1329C12.7473 11.9702 12.6826 11.8142 12.5674 11.6992L8.86718 7.99998L12.5674 4.30078Z" fill="black"/>
</svg>
