<svg width="26" height="26" viewBox="0 0 26 26" fill="none" xmlns="http://www.w3.org/2000/svg">
<g clip-path="url(#clip0_115_61)">
<path d="M13 24.375C9.98316 24.375 7.08989 23.1766 4.95666 21.0433C2.82343 18.9101 1.625 16.0168 1.625 13C1.625 9.98316 2.82343 7.08989 4.95666 4.95666C7.08989 2.82343 9.98316 1.625 13 1.625C16.0168 1.625 18.9101 2.82343 21.0433 4.95666C23.1766 7.08989 24.375 9.98316 24.375 13C24.375 16.0168 23.1766 18.9101 21.0433 21.0433C18.9101 23.1766 16.0168 24.375 13 24.375ZM13 26C16.4478 26 19.7544 24.6304 22.1924 22.1924C24.6304 19.7544 26 16.4478 26 13C26 9.55219 24.6304 6.24558 22.1924 3.80761C19.7544 1.36964 16.4478 0 13 0C9.55219 0 6.24558 1.36964 3.80761 3.80761C1.36964 6.24558 0 9.55219 0 13C0 16.4478 1.36964 19.7544 3.80761 22.1924C6.24558 24.6304 9.55219 26 13 26Z" fill="black"/>
<path d="M14.5113 10.7055L10.79 11.1719L10.6568 11.7894L11.388 11.9242C11.8658 12.038 11.96 12.2103 11.856 12.6864L10.6568 18.3219C10.3415 19.7795 10.8274 20.4653 11.9698 20.4653C12.8554 20.4653 13.884 20.0558 14.3504 19.4935L14.4934 18.8175C14.1684 19.1035 13.6939 19.2173 13.3787 19.2173C12.9318 19.2173 12.7693 18.9036 12.8847 18.3511L14.5113 10.7055ZM14.625 7.3125C14.625 7.74348 14.4538 8.1568 14.1491 8.46155C13.8443 8.76629 13.431 8.9375 13 8.9375C12.5691 8.9375 12.1557 8.76629 11.851 8.46155C11.5462 8.1568 11.375 7.74348 11.375 7.3125C11.375 6.88152 11.5462 6.4682 11.851 6.16345C12.1557 5.8587 12.5691 5.6875 13 5.6875C13.431 5.6875 13.8443 5.8587 14.1491 6.16345C14.4538 6.4682 14.625 6.88152 14.625 7.3125Z" fill="black"/>
</g>
<defs>
<clipPath id="clip0_115_61">
<rect width="26" height="26" fill="white"/>
</clipPath>
</defs>
</svg>
