<svg width="23" height="23" viewBox="0 0 23 23" fill="none" xmlns="http://www.w3.org/2000/svg">
<path fill-rule="evenodd" clip-rule="evenodd" d="M11.5 1.34168C10.1595 1.33989 8.86347 1.82262 7.85077 2.70092C6.83807 3.57922 6.1769 4.79392 5.98908 6.1212C5.80125 7.44849 6.09943 8.79894 6.82867 9.92375C7.55791 11.0485 8.66908 11.8719 9.95745 12.2421C8.12665 12.4645 6.55651 13.1115 5.37278 14.2784C3.86705 15.7611 3.10498 17.9707 3.10498 20.8533C3.10498 21.0465 3.18172 21.2318 3.3183 21.3684C3.45489 21.5049 3.64015 21.5817 3.83331 21.5817C4.02648 21.5817 4.21173 21.5049 4.34832 21.3684C4.48491 21.2318 4.56165 21.0465 4.56165 20.8533C4.56165 18.216 5.25625 16.4373 6.39551 15.3149C7.53631 14.191 9.24138 13.6083 11.5 13.6083C13.7586 13.6083 15.4636 14.191 16.606 15.3149C17.7437 16.4389 18.4383 18.216 18.4383 20.8533C18.4383 21.0465 18.515 21.2318 18.6516 21.3684C18.7882 21.5049 18.9735 21.5817 19.1666 21.5817C19.3598 21.5817 19.5451 21.5049 19.6817 21.3684C19.8182 21.2318 19.895 21.0465 19.895 20.8533C19.895 17.9707 19.1329 15.7627 17.6256 14.2784C16.445 13.1131 14.8733 12.4645 13.0425 12.2421C14.3266 11.8678 15.4327 11.0431 16.1582 9.91941C16.8836 8.79569 17.1797 7.44817 16.9923 6.12383C16.8049 4.79948 16.1465 3.58705 15.1378 2.70874C14.129 1.83043 12.8375 1.34509 11.5 1.34168ZM7.39831 6.90001C7.39831 5.81218 7.83045 4.76891 8.59966 3.9997C9.36888 3.23048 10.4122 2.79835 11.5 2.79835C12.5878 2.79835 13.6311 3.23048 14.4003 3.9997C15.1695 4.76891 15.6016 5.81218 15.6016 6.90001C15.6016 7.98784 15.1695 9.03112 14.4003 9.80033C13.6311 10.5695 12.5878 11.0017 11.5 11.0017C10.4122 11.0017 9.36888 10.5695 8.59966 9.80033C7.83045 9.03112 7.39831 7.98784 7.39831 6.90001Z" fill="black"/>
</svg>
