<svg width="26" height="26" viewBox="0 0 26 26" fill="none" xmlns="http://www.w3.org/2000/svg">
<g clip-path="url(#clip0_115_59)">
<path d="M19.0807 16.809C20.6542 14.6619 21.359 11.9998 21.054 9.35541C20.749 6.71098 19.4568 4.27922 17.4359 2.54663C15.4149 0.814038 12.8143 -0.091603 10.1544 0.0108909C7.49437 0.113385 4.97117 1.21645 3.08955 3.09942C1.20794 4.98238 0.106676 7.50637 0.00608577 10.1664C-0.0945047 12.8265 0.812997 15.4264 2.54703 17.4461C4.28107 19.4658 6.71375 20.7563 9.3584 21.0594C12.003 21.3625 14.6646 20.6558 16.8106 19.0808H16.809C16.8577 19.1458 16.9097 19.2075 16.9682 19.2677L23.2245 25.5239C23.5292 25.8288 23.9425 26.0002 24.3736 26.0004C24.8047 26.0005 25.2181 25.8294 25.5231 25.5247C25.828 25.22 25.9994 24.8067 25.9995 24.3756C25.9997 23.9446 25.8286 23.5311 25.5239 23.2262L19.2676 16.9699C19.2095 16.9111 19.147 16.8568 19.0807 16.8074V16.809ZM19.5 10.5625C19.5 11.7362 19.2688 12.8984 18.8197 13.9828C18.3705 15.0671 17.7122 16.0524 16.8823 16.8823C16.0523 17.7122 15.0671 18.3706 13.9827 18.8197C12.8984 19.2689 11.7362 19.5 10.5625 19.5C9.38881 19.5 8.22661 19.2689 7.14226 18.8197C6.05791 18.3706 5.07265 17.7122 4.24273 16.8823C3.4128 16.0524 2.75447 15.0671 2.30532 13.9828C1.85617 12.8984 1.62499 11.7362 1.62499 10.5625C1.62499 8.19217 2.56662 5.91888 4.24273 4.24277C5.91883 2.56667 8.19212 1.62504 10.5625 1.62504C12.9329 1.62504 15.2062 2.56667 16.8823 4.24277C18.5584 5.91888 19.5 8.19217 19.5 10.5625Z" fill="black"/>
</g>
<defs>
<clipPath id="clip0_115_59">
<rect width="26" height="26" fill="white"/>
</clipPath>
</defs>
</svg>
